<svg id="egtdCK0nFHp1" xmlns="http://www.w3.org/2000/svg" xmlns:xlink="http://www.w3.org/1999/xlink" viewBox="0 0 1540 740" shape-rendering="geometricPrecision" text-rendering="geometricPrecision"><g id="egtdCK0nFHp2" transform="matrix(1 0 0 1 -0.5 -0.349972)"><path id="egtdCK0nFHp3" d="M524.359508,538C523.266533,539.912705,466.079393,698.424002,480.747097,697.798579C495.414801,697.173156,1066.949211,697.798579,1066.949211,697.798579C1076.688441,696.251065,1014.357774,539.999999,1014.357774,539.999999" transform="matrix(1 0 0 1 0.000001 0.000001)" fill="rgb(197,213,215)" stroke="none" stroke-width="3.08"/><path id="egtdCK0nFHp4" d="M479.844056,697.79858L476.977082,711.533358L1076.266147,711.183418L1068.043103,697.79858" transform="matrix(1 0 0 1 -1.621614 -6.867389)" fill="rgb(197,213,215)" stroke="none" stroke-width="3.08"/><path id="egtdCK0nFHp5" d="M516.089999,711.533358L524.359509,728.365535L1014.357775,726.640521L1021.506195,711.183416" transform="matrix(1 0 0 1 -0.049421 -8.241114)" fill="rgb(197,213,215)" stroke="none" stroke-width="3.08"/><g id="egtdCK0nFHp6" transform="matrix(1 0 0 1 0.000001 0)"><path id="egtdCK0nFHp7" d="M515.991156,711.533361L519.59625,718.56965L1014.357774,719.774483L1021.506194,711.533361L515.991156,711.533361Z" transform="matrix(0.994854 0 0 1.084933 2.655621 -67.650027)" fill="rgb(111,120,121)" stroke="none" stroke-width="3.08"/><path id="egtdCK0nFHp8" d="M1016.020434,713.257062L1011.387849,713.257062L1018.438915,704.315997L1020.073944,704.315996L1016.020434,713.257062Z" transform="matrix(1 0 0 1 0.000003 0.000001)" fill="rgb(111,120,121)" stroke="none" stroke-width="3.08"/></g><path id="egtdCK0nFHp9" d="M523.859509,539.650028L515.540578,559.181746L1020.956771,559.181746L1013.808352,539.650028" transform="matrix(1 0 0 1 0.000003 0)" fill="rgb(111,120,121)" stroke="none" stroke-width="3.08"/><rect id="egtdCK0nFHp10" width="1200" height="520" rx="17.5" ry="17.5" transform="matrix(1 0 0 1 175 15)" fill="rgb(111,120,121)" stroke="none" stroke-width="1"/><rect id="egtdCK0nFHp11" width="1200" height="520" rx="17.5" ry="17.5" transform="matrix(1 0 0 1 175 20)" fill="rgb(197,213,215)" stroke="none" stroke-width="1"/><rect id="egtdCK0nFHp12" width="95" height="55" rx="0" ry="0" transform="matrix(1 0 0 1 722 539)" fill="rgb(197,213,215)" stroke="none" stroke-width="1"/><polygon id="egtdCK0nFHp13" points="816,538 840,565.5 816,615" fill="rgb(111,120,121)" stroke="none" stroke-width="1"/><polygon id="egtdCK0nFHp14" points="723,538 699,565.5 723,615" fill="rgb(111,120,121)" stroke="none" stroke-width="1"/><rect id="egtdCK0nFHp15" width="95" height="23" rx="3" ry="3" transform="matrix(1 0 0 1 722 593)" fill="rgb(111,120,121)" stroke="none" stroke-width="1"/><circle id="egtdCK0nFHp16" r="12" transform="matrix(1 0 0 1 770 515)" fill="rgb(111,120,121)" stroke="none" stroke-width="1"/></g><g id="egtdCK0nFHp17"><rect id="egtdCK0nFHp18" width="1175" height="452" rx="0" ry="0" transform="matrix(1 0 0 1 187 37.5)" fill="rgb(0,0,0)" stroke="none" stroke-width="1"/></g></svg>